<svg width="41" height="36" viewBox="0 0 41 36" fill="none" xmlns="http://www.w3.org/2000/svg">
<g filter="url(#filter0_d_4123_4)">
<path d="M37.3302 0.434128L1.87019 14.1081C-0.549811 15.0801 -0.53581 16.4301 1.42619 17.0321L10.5302 19.8721L31.5942 6.58213C32.5902 5.97613 33.5002 6.30213 32.7522 6.96613L15.6862 22.3681H15.6822L15.6862 22.3701L15.0582 31.7541C15.9782 31.7541 16.3842 31.3321 16.9002 30.8341L21.3222 26.5341L30.5202 33.3281C32.2162 34.2621 33.4342 33.7821 33.8562 31.7581L39.8942 3.30213C40.5122 0.824129 38.9482 -0.297872 37.3302 0.434128Z" fill="#F9E7C0"/>
<path d="M37.5361 0.890137C38.2042 0.58789 38.768 0.699665 39.1035 1.02393C39.4456 1.35472 39.6928 2.04403 39.4092 3.18115L39.4053 3.19873L33.3672 31.6548V31.6558C33.1701 32.601 32.8169 33.0365 32.4609 33.1968C32.1051 33.3569 31.5624 33.3252 30.7832 32.9009L21.6191 26.1323L21.2783 25.8794L20.9736 26.1753L16.5527 30.4741C16.2806 30.7367 16.0948 30.9195 15.874 31.0513C15.7914 31.1006 15.7008 31.1407 15.5977 31.1743L16.1719 22.603L33.084 7.34033C33.2992 7.14927 33.5139 6.88485 33.5264 6.56006C33.5332 6.37995 33.4749 6.20839 33.3604 6.07178C33.2523 5.94303 33.114 5.86754 32.9893 5.82471C32.7457 5.74118 32.4638 5.74843 32.1992 5.80322C31.9935 5.84586 31.7749 5.92205 31.5547 6.03271L31.334 6.15479L31.3271 6.15967L10.458 19.3257L1.5752 16.5552L1.57324 16.5542L1.26562 16.4458C0.987585 16.3336 0.793703 16.2104 0.670898 16.0942C0.516214 15.9478 0.494243 15.837 0.501953 15.7593C0.511663 15.6628 0.580245 15.4904 0.834961 15.2651C1.08564 15.0435 1.48102 14.8038 2.0498 14.5747L37.5098 0.900879L37.5234 0.895996L37.5361 0.890137Z" stroke="#161616"/>
</g>
<defs>
<filter id="filter0_d_4123_4" x="0.000976562" y="0.213379" width="40.0312" height="35.5728" filterUnits="userSpaceOnUse" color-interpolation-filters="sRGB">
<feFlood flood-opacity="0" result="BackgroundImageFix"/>
<feColorMatrix in="SourceAlpha" type="matrix" values="0 0 0 0 0 0 0 0 0 0 0 0 0 0 0 0 0 0 127 0" result="hardAlpha"/>
<feOffset dy="2"/>
<feComposite in2="hardAlpha" operator="out"/>
<feColorMatrix type="matrix" values="0 0 0 0 0.197115 0 0 0 0 0.0754146 0 0 0 0 0.00758136 0 0 0 1 0"/>
<feBlend mode="normal" in2="BackgroundImageFix" result="effect1_dropShadow_4123_4"/>
<feBlend mode="normal" in="SourceGraphic" in2="effect1_dropShadow_4123_4" result="shape"/>
</filter>
</defs>
</svg>
