<svg width="48" height="48" viewBox="0 0 48 48" fill="none" xmlns="http://www.w3.org/2000/svg">
<g filter="url(#filter0_d_4080_941)">
<path d="M35.3741 6.12598L25.3821 17.548L16.7421 6.12598H4.22412L19.1781 25.678L5.00612 41.876H11.0741L22.0121 29.376L31.5721 41.876H43.7761L28.1881 21.268L41.4381 6.12598H35.3741ZM33.2461 38.246L11.3081 9.56398H14.9141L36.6061 38.244L33.2461 38.246Z" fill="#F9E7C0"/>
<path d="M16.4937 6.62598L24.9829 17.8496L25.354 18.3398L25.7583 17.877L35.6011 6.62598H40.3364L27.812 20.9385L27.5435 21.2451L27.7896 21.5693L42.771 41.376H31.8188L22.4097 29.0723L22.0386 28.5869L21.6362 29.0469L10.8472 41.376H6.10791L19.5542 26.0068L19.8237 25.6992L19.5757 25.374L5.23584 6.62598H16.4937ZM10.9106 9.86816L32.8491 38.5498L32.9995 38.7461H33.2466L36.606 38.7441L37.6108 38.7432L37.0054 37.9424L15.313 9.2627L15.1626 9.06445H10.2964L10.9106 9.86816Z" stroke="#161616"/>
</g>
<defs>
<filter id="filter0_d_4080_941" x="4.22412" y="6.12598" width="39.5522" height="37.75" filterUnits="userSpaceOnUse" color-interpolation-filters="sRGB">
<feFlood flood-opacity="0" result="BackgroundImageFix"/>
<feColorMatrix in="SourceAlpha" type="matrix" values="0 0 0 0 0 0 0 0 0 0 0 0 0 0 0 0 0 0 127 0" result="hardAlpha"/>
<feOffset dy="2"/>
<feComposite in2="hardAlpha" operator="out"/>
<feColorMatrix type="matrix" values="0 0 0 0 0.197115 0 0 0 0 0.0754146 0 0 0 0 0.00758136 0 0 0 1 0"/>
<feBlend mode="normal" in2="BackgroundImageFix" result="effect1_dropShadow_4080_941"/>
<feBlend mode="normal" in="SourceGraphic" in2="effect1_dropShadow_4080_941" result="shape"/>
</filter>
</defs>
</svg>
