<svg width="40" height="34" viewBox="0 0 40 34" fill="none" xmlns="http://www.w3.org/2000/svg">
<g filter="url(#filter0_d_4123_264)">
<path d="M20.488 0C21.556 0.006 24.228 0.0319999 27.068 0.146L28.076 0.19C30.934 0.324 33.79 0.556 35.208 0.95C37.098 1.482 38.582 3.03 39.084 4.994C39.884 8.114 39.984 14.198 39.996 15.672L39.998 15.976V16.324C39.984 17.798 39.884 23.884 39.084 27.002C38.576 28.972 37.09 30.522 35.208 31.046C33.79 31.44 30.934 31.672 28.076 31.806L27.068 31.852C24.228 31.964 21.556 31.992 20.488 31.996L20.018 31.998H19.508C17.248 31.984 7.796 31.882 4.788 31.046C2.9 30.514 1.414 28.966 0.912 27.002C0.112 23.882 0.012 17.798 0 16.324V15.672C0.012 14.198 0.112 8.112 0.912 4.994C1.42 3.024 2.906 1.474 4.79 0.952C7.796 0.114 17.25 0.012 19.51 0H20.488ZM15.998 9V23L27.998 16L15.998 9Z" fill="#F9E7C0"/>
<path d="M20.4854 0.5L21.5615 0.509766C22.893 0.52491 24.9226 0.559332 27.0459 0.644531V0.645508L28.0527 0.688477V0.689453C30.9227 0.824019 33.718 1.05491 35.0723 1.43066V1.43164C36.6767 1.88327 37.969 3.1475 38.5029 4.78516L38.5996 5.11816C38.9867 6.62763 39.2095 8.88658 39.3359 10.9805C39.4303 12.5431 39.4701 13.9914 39.4863 14.9268L39.4961 15.6758L39.498 15.9795V16.3242C39.491 17.0608 39.4627 18.9378 39.3369 21.0166C39.2103 23.1104 38.9865 25.3686 38.5996 26.877C38.163 28.5699 36.9417 29.9133 35.3887 30.4648L35.0742 30.5645C33.8898 30.8935 31.6005 31.1113 29.123 31.251L28.0527 31.3066L27.0449 31.3525C24.9222 31.4362 22.8933 31.4725 21.5625 31.4873L20.4863 31.4961L20.0156 31.498H19.5107C18.3827 31.4911 15.4622 31.4624 12.4502 31.3311C9.41357 31.1986 6.36121 30.9639 4.92285 30.5645H4.92383C3.321 30.1128 2.02731 28.8484 1.49316 27.2109L1.39648 26.8779C1.00944 25.3685 0.785597 23.1095 0.65918 21.0156C0.564839 19.453 0.526012 18.0047 0.509766 17.0693L0.5 16.3203V15.6758C0.505969 14.943 0.533425 13.0627 0.65918 10.9795C0.785578 8.88572 1.00959 6.62752 1.39648 5.11914C1.83304 3.42621 3.0542 2.08322 4.6084 1.5332L4.92383 1.43359C6.36054 1.03307 9.41369 0.79846 12.4512 0.666016C14.7106 0.567505 16.919 0.526449 18.3574 0.509766L19.5127 0.5H20.4854ZM15.498 23.8701L16.25 23.4316L28.25 16.4316L28.9902 16L28.25 15.5684L16.25 8.56836L15.498 8.12988V23.8701Z" stroke="#161616"/>
</g>
<defs>
<filter id="filter0_d_4123_264" x="0" y="0" width="39.998" height="33.998" filterUnits="userSpaceOnUse" color-interpolation-filters="sRGB">
<feFlood flood-opacity="0" result="BackgroundImageFix"/>
<feColorMatrix in="SourceAlpha" type="matrix" values="0 0 0 0 0 0 0 0 0 0 0 0 0 0 0 0 0 0 127 0" result="hardAlpha"/>
<feOffset dy="2"/>
<feComposite in2="hardAlpha" operator="out"/>
<feColorMatrix type="matrix" values="0 0 0 0 0.197115 0 0 0 0 0.0754146 0 0 0 0 0.00758136 0 0 0 1 0"/>
<feBlend mode="normal" in2="BackgroundImageFix" result="effect1_dropShadow_4123_264"/>
<feBlend mode="normal" in="SourceGraphic" in2="effect1_dropShadow_4123_264" result="shape"/>
</filter>
</defs>
</svg>
